<mxfile host="app.diagrams.net" modified="2023-07-19T00:59:21.672Z" agent="Mozilla/5.0 (Windows NT 10.0; Win64; x64) AppleWebKit/537.36 (KHTML, like Gecko) Chrome/114.0.0.0 Safari/537.36" etag="3TaiZCa06NG-Y8ZA-fIa" version="21.6.2" type="device">
  <diagram name="Page-1" id="XCcQub5omXlxO2jE5SeH">
    <mxGraphModel dx="1341" dy="723" grid="0" gridSize="10" guides="1" tooltips="1" connect="1" arrows="1" fold="1" page="0" pageScale="1" pageWidth="850" pageHeight="1100" math="0" shadow="0">
      <root>
        <mxCell id="0" />
        <mxCell id="1" parent="0" />
        <mxCell id="fseATajrNS3E0zKsUvDf-2" value="" style="rounded=0;whiteSpace=wrap;html=1;fillColor=#f8cecc;strokeColor=#b85450;" parent="1" vertex="1">
          <mxGeometry x="500" y="120" width="130" height="330" as="geometry" />
        </mxCell>
        <mxCell id="fseATajrNS3E0zKsUvDf-3" value="" style="endArrow=none;html=1;rounded=0;" parent="1" edge="1">
          <mxGeometry width="50" height="50" relative="1" as="geometry">
            <mxPoint x="630" y="210" as="sourcePoint" />
            <mxPoint x="700" y="210" as="targetPoint" />
          </mxGeometry>
        </mxCell>
        <mxCell id="fseATajrNS3E0zKsUvDf-4" value="" style="endArrow=none;html=1;rounded=0;" parent="1" edge="1">
          <mxGeometry width="50" height="50" relative="1" as="geometry">
            <mxPoint x="630" y="230" as="sourcePoint" />
            <mxPoint x="700" y="230" as="targetPoint" />
          </mxGeometry>
        </mxCell>
        <mxCell id="fseATajrNS3E0zKsUvDf-5" value="" style="endArrow=none;html=1;rounded=0;" parent="1" edge="1">
          <mxGeometry width="50" height="50" relative="1" as="geometry">
            <mxPoint x="630" y="250" as="sourcePoint" />
            <mxPoint x="700" y="250" as="targetPoint" />
          </mxGeometry>
        </mxCell>
        <mxCell id="fseATajrNS3E0zKsUvDf-6" value="" style="endArrow=none;html=1;rounded=0;" parent="1" edge="1">
          <mxGeometry width="50" height="50" relative="1" as="geometry">
            <mxPoint x="630" y="270" as="sourcePoint" />
            <mxPoint x="700" y="270" as="targetPoint" />
          </mxGeometry>
        </mxCell>
        <mxCell id="fseATajrNS3E0zKsUvDf-7" value="" style="endArrow=none;html=1;rounded=0;" parent="1" edge="1">
          <mxGeometry width="50" height="50" relative="1" as="geometry">
            <mxPoint x="630" y="290" as="sourcePoint" />
            <mxPoint x="700" y="290" as="targetPoint" />
          </mxGeometry>
        </mxCell>
        <mxCell id="fseATajrNS3E0zKsUvDf-8" value="" style="endArrow=none;html=1;rounded=0;" parent="1" edge="1">
          <mxGeometry width="50" height="50" relative="1" as="geometry">
            <mxPoint x="630" y="310" as="sourcePoint" />
            <mxPoint x="700" y="310" as="targetPoint" />
          </mxGeometry>
        </mxCell>
        <mxCell id="fseATajrNS3E0zKsUvDf-9" value="" style="endArrow=none;html=1;rounded=0;" parent="1" edge="1">
          <mxGeometry width="50" height="50" relative="1" as="geometry">
            <mxPoint x="630" y="330" as="sourcePoint" />
            <mxPoint x="700" y="330" as="targetPoint" />
          </mxGeometry>
        </mxCell>
        <mxCell id="fseATajrNS3E0zKsUvDf-10" value="" style="endArrow=none;html=1;rounded=0;" parent="1" edge="1">
          <mxGeometry width="50" height="50" relative="1" as="geometry">
            <mxPoint x="630" y="350" as="sourcePoint" />
            <mxPoint x="700" y="350" as="targetPoint" />
          </mxGeometry>
        </mxCell>
        <mxCell id="fseATajrNS3E0zKsUvDf-15" value="" style="endArrow=none;html=1;rounded=0;" parent="1" edge="1">
          <mxGeometry width="50" height="50" relative="1" as="geometry">
            <mxPoint x="630" y="370" as="sourcePoint" />
            <mxPoint x="700" y="370" as="targetPoint" />
          </mxGeometry>
        </mxCell>
        <mxCell id="fseATajrNS3E0zKsUvDf-16" value="" style="endArrow=none;html=1;rounded=0;" parent="1" edge="1">
          <mxGeometry width="50" height="50" relative="1" as="geometry">
            <mxPoint x="630" y="390" as="sourcePoint" />
            <mxPoint x="700" y="390" as="targetPoint" />
          </mxGeometry>
        </mxCell>
        <mxCell id="fseATajrNS3E0zKsUvDf-17" value="" style="endArrow=none;html=1;rounded=0;" parent="1" edge="1">
          <mxGeometry width="50" height="50" relative="1" as="geometry">
            <mxPoint x="630" y="410" as="sourcePoint" />
            <mxPoint x="700" y="410" as="targetPoint" />
          </mxGeometry>
        </mxCell>
        <mxCell id="fseATajrNS3E0zKsUvDf-18" value="" style="endArrow=none;html=1;rounded=0;" parent="1" edge="1">
          <mxGeometry width="50" height="50" relative="1" as="geometry">
            <mxPoint x="630" y="430" as="sourcePoint" />
            <mxPoint x="700" y="430" as="targetPoint" />
          </mxGeometry>
        </mxCell>
        <mxCell id="fseATajrNS3E0zKsUvDf-19" value="" style="endArrow=none;html=1;rounded=0;" parent="1" edge="1">
          <mxGeometry width="50" height="50" relative="1" as="geometry">
            <mxPoint x="430" y="130" as="sourcePoint" />
            <mxPoint x="500" y="130" as="targetPoint" />
          </mxGeometry>
        </mxCell>
        <mxCell id="fseATajrNS3E0zKsUvDf-20" value="" style="endArrow=none;html=1;rounded=0;" parent="1" edge="1">
          <mxGeometry width="50" height="50" relative="1" as="geometry">
            <mxPoint x="430" y="150" as="sourcePoint" />
            <mxPoint x="500" y="150" as="targetPoint" />
          </mxGeometry>
        </mxCell>
        <mxCell id="fseATajrNS3E0zKsUvDf-21" value="" style="endArrow=none;html=1;rounded=0;" parent="1" edge="1">
          <mxGeometry width="50" height="50" relative="1" as="geometry">
            <mxPoint x="430" y="170" as="sourcePoint" />
            <mxPoint x="500" y="170" as="targetPoint" />
          </mxGeometry>
        </mxCell>
        <mxCell id="fseATajrNS3E0zKsUvDf-22" value="" style="endArrow=none;html=1;rounded=0;" parent="1" edge="1">
          <mxGeometry width="50" height="50" relative="1" as="geometry">
            <mxPoint x="430" y="190" as="sourcePoint" />
            <mxPoint x="500" y="190" as="targetPoint" />
          </mxGeometry>
        </mxCell>
        <mxCell id="fseATajrNS3E0zKsUvDf-23" value="" style="endArrow=none;html=1;rounded=0;" parent="1" edge="1">
          <mxGeometry width="50" height="50" relative="1" as="geometry">
            <mxPoint x="430" y="210" as="sourcePoint" />
            <mxPoint x="500" y="210" as="targetPoint" />
          </mxGeometry>
        </mxCell>
        <mxCell id="fseATajrNS3E0zKsUvDf-24" value="" style="endArrow=none;html=1;rounded=0;" parent="1" edge="1">
          <mxGeometry width="50" height="50" relative="1" as="geometry">
            <mxPoint x="430" y="230" as="sourcePoint" />
            <mxPoint x="500" y="230" as="targetPoint" />
          </mxGeometry>
        </mxCell>
        <mxCell id="fseATajrNS3E0zKsUvDf-25" value="" style="endArrow=none;html=1;rounded=0;" parent="1" edge="1">
          <mxGeometry width="50" height="50" relative="1" as="geometry">
            <mxPoint x="430" y="250" as="sourcePoint" />
            <mxPoint x="500" y="250" as="targetPoint" />
          </mxGeometry>
        </mxCell>
        <mxCell id="fseATajrNS3E0zKsUvDf-26" value="" style="endArrow=none;html=1;rounded=0;" parent="1" edge="1">
          <mxGeometry width="50" height="50" relative="1" as="geometry">
            <mxPoint x="430" y="270" as="sourcePoint" />
            <mxPoint x="500" y="270" as="targetPoint" />
          </mxGeometry>
        </mxCell>
        <mxCell id="fseATajrNS3E0zKsUvDf-27" value="" style="endArrow=none;html=1;rounded=0;" parent="1" edge="1">
          <mxGeometry width="50" height="50" relative="1" as="geometry">
            <mxPoint x="430" y="290" as="sourcePoint" />
            <mxPoint x="500" y="290" as="targetPoint" />
          </mxGeometry>
        </mxCell>
        <mxCell id="fseATajrNS3E0zKsUvDf-28" value="" style="endArrow=none;html=1;rounded=0;" parent="1" edge="1">
          <mxGeometry width="50" height="50" relative="1" as="geometry">
            <mxPoint x="430" y="310" as="sourcePoint" />
            <mxPoint x="500" y="310" as="targetPoint" />
          </mxGeometry>
        </mxCell>
        <mxCell id="fseATajrNS3E0zKsUvDf-29" value="" style="endArrow=none;html=1;rounded=0;" parent="1" edge="1">
          <mxGeometry width="50" height="50" relative="1" as="geometry">
            <mxPoint x="430" y="330" as="sourcePoint" />
            <mxPoint x="500" y="330" as="targetPoint" />
          </mxGeometry>
        </mxCell>
        <mxCell id="fseATajrNS3E0zKsUvDf-30" value="" style="endArrow=none;html=1;rounded=0;" parent="1" edge="1">
          <mxGeometry width="50" height="50" relative="1" as="geometry">
            <mxPoint x="430" y="350" as="sourcePoint" />
            <mxPoint x="500" y="350" as="targetPoint" />
          </mxGeometry>
        </mxCell>
        <mxCell id="fseATajrNS3E0zKsUvDf-31" value="" style="endArrow=none;html=1;rounded=0;" parent="1" edge="1">
          <mxGeometry width="50" height="50" relative="1" as="geometry">
            <mxPoint x="430" y="370" as="sourcePoint" />
            <mxPoint x="500" y="370" as="targetPoint" />
          </mxGeometry>
        </mxCell>
        <mxCell id="fseATajrNS3E0zKsUvDf-32" value="" style="endArrow=none;html=1;rounded=0;" parent="1" edge="1">
          <mxGeometry width="50" height="50" relative="1" as="geometry">
            <mxPoint x="430" y="390" as="sourcePoint" />
            <mxPoint x="500" y="390" as="targetPoint" />
          </mxGeometry>
        </mxCell>
        <mxCell id="fseATajrNS3E0zKsUvDf-33" value="" style="endArrow=none;html=1;rounded=0;" parent="1" edge="1">
          <mxGeometry width="50" height="50" relative="1" as="geometry">
            <mxPoint x="430" y="410" as="sourcePoint" />
            <mxPoint x="500" y="410" as="targetPoint" />
          </mxGeometry>
        </mxCell>
        <mxCell id="fseATajrNS3E0zKsUvDf-34" value="" style="endArrow=none;html=1;rounded=0;" parent="1" edge="1">
          <mxGeometry width="50" height="50" relative="1" as="geometry">
            <mxPoint x="430" y="430" as="sourcePoint" />
            <mxPoint x="500" y="430" as="targetPoint" />
          </mxGeometry>
        </mxCell>
        <mxCell id="fseATajrNS3E0zKsUvDf-35" value="Feather M0 WIFI" style="text;html=1;strokeColor=none;fillColor=none;align=center;verticalAlign=middle;whiteSpace=wrap;rounded=0;" parent="1" vertex="1">
          <mxGeometry x="530" y="310" width="60" height="30" as="geometry" />
        </mxCell>
        <mxCell id="fseATajrNS3E0zKsUvDf-36" value="U1" style="text;html=1;strokeColor=none;fillColor=none;align=center;verticalAlign=middle;whiteSpace=wrap;rounded=0;" parent="1" vertex="1">
          <mxGeometry x="490" y="100" width="60" height="30" as="geometry" />
        </mxCell>
        <mxCell id="fseATajrNS3E0zKsUvDf-37" value="ATSAMD21" style="text;html=1;strokeColor=none;fillColor=none;align=center;verticalAlign=middle;whiteSpace=wrap;rounded=0;" parent="1" vertex="1">
          <mxGeometry x="570" y="100" width="60" height="30" as="geometry" />
        </mxCell>
        <mxCell id="fseATajrNS3E0zKsUvDf-38" value="VBAT" style="text;html=1;strokeColor=none;fillColor=none;align=center;verticalAlign=middle;whiteSpace=wrap;rounded=0;" parent="1" vertex="1">
          <mxGeometry x="620" y="190" width="60" height="30" as="geometry" />
        </mxCell>
        <mxCell id="fseATajrNS3E0zKsUvDf-39" value="EN" style="text;html=1;strokeColor=none;fillColor=none;align=center;verticalAlign=middle;whiteSpace=wrap;rounded=0;" parent="1" vertex="1">
          <mxGeometry x="620" y="210" width="60" height="30" as="geometry" />
        </mxCell>
        <mxCell id="fseATajrNS3E0zKsUvDf-40" value="VBUS" style="text;html=1;strokeColor=none;fillColor=none;align=center;verticalAlign=middle;whiteSpace=wrap;rounded=0;" parent="1" vertex="1">
          <mxGeometry x="620" y="230" width="60" height="30" as="geometry" />
        </mxCell>
        <mxCell id="fseATajrNS3E0zKsUvDf-41" value="D13" style="text;html=1;strokeColor=none;fillColor=none;align=center;verticalAlign=middle;whiteSpace=wrap;rounded=0;" parent="1" vertex="1">
          <mxGeometry x="620" y="250" width="60" height="30" as="geometry" />
        </mxCell>
        <mxCell id="fseATajrNS3E0zKsUvDf-42" value="D12" style="text;html=1;strokeColor=none;fillColor=none;align=center;verticalAlign=middle;whiteSpace=wrap;rounded=0;" parent="1" vertex="1">
          <mxGeometry x="620" y="270" width="60" height="30" as="geometry" />
        </mxCell>
        <mxCell id="fseATajrNS3E0zKsUvDf-43" value="D11" style="text;html=1;strokeColor=none;fillColor=none;align=center;verticalAlign=middle;whiteSpace=wrap;rounded=0;" parent="1" vertex="1">
          <mxGeometry x="620" y="290" width="60" height="30" as="geometry" />
        </mxCell>
        <mxCell id="fseATajrNS3E0zKsUvDf-44" value="D10" style="text;html=1;strokeColor=none;fillColor=none;align=center;verticalAlign=middle;whiteSpace=wrap;rounded=0;" parent="1" vertex="1">
          <mxGeometry x="620" y="310" width="60" height="30" as="geometry" />
        </mxCell>
        <mxCell id="fseATajrNS3E0zKsUvDf-45" value="D9/A7" style="text;html=1;strokeColor=none;fillColor=none;align=center;verticalAlign=middle;whiteSpace=wrap;rounded=0;" parent="1" vertex="1">
          <mxGeometry x="620" y="330" width="60" height="30" as="geometry" />
        </mxCell>
        <mxCell id="fseATajrNS3E0zKsUvDf-46" value="D6" style="text;html=1;strokeColor=none;fillColor=none;align=center;verticalAlign=middle;whiteSpace=wrap;rounded=0;" parent="1" vertex="1">
          <mxGeometry x="620" y="350" width="60" height="30" as="geometry" />
        </mxCell>
        <mxCell id="fseATajrNS3E0zKsUvDf-47" value="D5" style="text;html=1;strokeColor=none;fillColor=none;align=center;verticalAlign=middle;whiteSpace=wrap;rounded=0;" parent="1" vertex="1">
          <mxGeometry x="620" y="370" width="60" height="30" as="geometry" />
        </mxCell>
        <mxCell id="fseATajrNS3E0zKsUvDf-48" value="SCL/21" style="text;html=1;strokeColor=none;fillColor=none;align=center;verticalAlign=middle;whiteSpace=wrap;rounded=0;" parent="1" vertex="1">
          <mxGeometry x="630" y="390" width="60" height="30" as="geometry" />
        </mxCell>
        <mxCell id="fseATajrNS3E0zKsUvDf-49" value="SDA/20" style="text;html=1;strokeColor=none;fillColor=none;align=center;verticalAlign=middle;whiteSpace=wrap;rounded=0;" parent="1" vertex="1">
          <mxGeometry x="630" y="410" width="60" height="30" as="geometry" />
        </mxCell>
        <mxCell id="fseATajrNS3E0zKsUvDf-50" value="RESET" style="text;html=1;strokeColor=none;fillColor=none;align=center;verticalAlign=middle;whiteSpace=wrap;rounded=0;" parent="1" vertex="1">
          <mxGeometry x="430" y="110" width="60" height="30" as="geometry" />
        </mxCell>
        <mxCell id="fseATajrNS3E0zKsUvDf-51" value="3.3V" style="text;html=1;strokeColor=none;fillColor=none;align=center;verticalAlign=middle;whiteSpace=wrap;rounded=0;" parent="1" vertex="1">
          <mxGeometry x="430" y="130" width="60" height="30" as="geometry" />
        </mxCell>
        <mxCell id="fseATajrNS3E0zKsUvDf-52" value="AREF" style="text;html=1;strokeColor=none;fillColor=none;align=center;verticalAlign=middle;whiteSpace=wrap;rounded=0;" parent="1" vertex="1">
          <mxGeometry x="430" y="150" width="60" height="30" as="geometry" />
        </mxCell>
        <mxCell id="fMZIvA2q4rGcYtPjZDwC-1" value="GND" style="text;html=1;strokeColor=none;fillColor=none;align=center;verticalAlign=middle;whiteSpace=wrap;rounded=0;" parent="1" vertex="1">
          <mxGeometry x="430" y="170" width="60" height="30" as="geometry" />
        </mxCell>
        <mxCell id="fMZIvA2q4rGcYtPjZDwC-2" value="A0" style="text;html=1;strokeColor=none;fillColor=none;align=center;verticalAlign=middle;whiteSpace=wrap;rounded=0;" parent="1" vertex="1">
          <mxGeometry x="430" y="190" width="60" height="30" as="geometry" />
        </mxCell>
        <mxCell id="fMZIvA2q4rGcYtPjZDwC-3" value="A1" style="text;html=1;strokeColor=none;fillColor=none;align=center;verticalAlign=middle;whiteSpace=wrap;rounded=0;" parent="1" vertex="1">
          <mxGeometry x="430" y="210" width="60" height="30" as="geometry" />
        </mxCell>
        <mxCell id="fMZIvA2q4rGcYtPjZDwC-4" value="A2" style="text;html=1;strokeColor=none;fillColor=none;align=center;verticalAlign=middle;whiteSpace=wrap;rounded=0;" parent="1" vertex="1">
          <mxGeometry x="430" y="230" width="60" height="30" as="geometry" />
        </mxCell>
        <mxCell id="fMZIvA2q4rGcYtPjZDwC-5" value="A3" style="text;html=1;strokeColor=none;fillColor=none;align=center;verticalAlign=middle;whiteSpace=wrap;rounded=0;" parent="1" vertex="1">
          <mxGeometry x="430" y="250" width="60" height="30" as="geometry" />
        </mxCell>
        <mxCell id="fMZIvA2q4rGcYtPjZDwC-6" value="A4" style="text;html=1;strokeColor=none;fillColor=none;align=center;verticalAlign=middle;whiteSpace=wrap;rounded=0;" parent="1" vertex="1">
          <mxGeometry x="430" y="270" width="60" height="30" as="geometry" />
        </mxCell>
        <mxCell id="fMZIvA2q4rGcYtPjZDwC-7" value="A5" style="text;html=1;strokeColor=none;fillColor=none;align=center;verticalAlign=middle;whiteSpace=wrap;rounded=0;" parent="1" vertex="1">
          <mxGeometry x="430" y="290" width="60" height="30" as="geometry" />
        </mxCell>
        <mxCell id="fMZIvA2q4rGcYtPjZDwC-8" value="SCK/24" style="text;html=1;strokeColor=none;fillColor=none;align=center;verticalAlign=middle;whiteSpace=wrap;rounded=0;" parent="1" vertex="1">
          <mxGeometry x="430" y="310" width="60" height="30" as="geometry" />
        </mxCell>
        <mxCell id="fMZIvA2q4rGcYtPjZDwC-9" value="MOSI/23" style="text;html=1;strokeColor=none;fillColor=none;align=center;verticalAlign=middle;whiteSpace=wrap;rounded=0;" parent="1" vertex="1">
          <mxGeometry x="430" y="330" width="60" height="30" as="geometry" />
        </mxCell>
        <mxCell id="fMZIvA2q4rGcYtPjZDwC-10" value="MISO/22" style="text;html=1;strokeColor=none;fillColor=none;align=center;verticalAlign=middle;whiteSpace=wrap;rounded=0;" parent="1" vertex="1">
          <mxGeometry x="430" y="350" width="60" height="30" as="geometry" />
        </mxCell>
        <mxCell id="fMZIvA2q4rGcYtPjZDwC-11" value="D0" style="text;html=1;strokeColor=none;fillColor=none;align=center;verticalAlign=middle;whiteSpace=wrap;rounded=0;" parent="1" vertex="1">
          <mxGeometry x="430" y="370" width="60" height="30" as="geometry" />
        </mxCell>
        <mxCell id="fMZIvA2q4rGcYtPjZDwC-12" value="D1" style="text;html=1;strokeColor=none;fillColor=none;align=center;verticalAlign=middle;whiteSpace=wrap;rounded=0;" parent="1" vertex="1">
          <mxGeometry x="430" y="390" width="60" height="30" as="geometry" />
        </mxCell>
        <mxCell id="fMZIvA2q4rGcYtPjZDwC-13" value="WAKE" style="text;html=1;strokeColor=none;fillColor=none;align=center;verticalAlign=middle;whiteSpace=wrap;rounded=0;" parent="1" vertex="1">
          <mxGeometry x="430" y="410" width="60" height="30" as="geometry" />
        </mxCell>
        <mxCell id="fMZIvA2q4rGcYtPjZDwC-14" value="" style="rounded=0;whiteSpace=wrap;html=1;fillColor=#dae8fc;strokeColor=#6c8ebf;" parent="1" vertex="1">
          <mxGeometry x="930" y="115" width="100" height="155" as="geometry" />
        </mxCell>
        <mxCell id="fMZIvA2q4rGcYtPjZDwC-15" value="U2" style="text;html=1;strokeColor=none;fillColor=none;align=center;verticalAlign=middle;whiteSpace=wrap;rounded=0;" parent="1" vertex="1">
          <mxGeometry x="910" y="90" width="60" height="30" as="geometry" />
        </mxCell>
        <mxCell id="fMZIvA2q4rGcYtPjZDwC-16" value="OLED" style="text;html=1;strokeColor=none;fillColor=none;align=center;verticalAlign=middle;whiteSpace=wrap;rounded=0;" parent="1" vertex="1">
          <mxGeometry x="980" y="90" width="60" height="30" as="geometry" />
        </mxCell>
        <mxCell id="fMZIvA2q4rGcYtPjZDwC-17" value="" style="endArrow=none;html=1;rounded=0;" parent="1" edge="1">
          <mxGeometry width="50" height="50" relative="1" as="geometry">
            <mxPoint x="860" y="130" as="sourcePoint" />
            <mxPoint x="930" y="130" as="targetPoint" />
          </mxGeometry>
        </mxCell>
        <mxCell id="fMZIvA2q4rGcYtPjZDwC-18" value="" style="endArrow=none;html=1;rounded=0;" parent="1" edge="1">
          <mxGeometry width="50" height="50" relative="1" as="geometry">
            <mxPoint x="860" y="150" as="sourcePoint" />
            <mxPoint x="930" y="150" as="targetPoint" />
          </mxGeometry>
        </mxCell>
        <mxCell id="fMZIvA2q4rGcYtPjZDwC-19" value="" style="endArrow=none;html=1;rounded=0;" parent="1" edge="1">
          <mxGeometry width="50" height="50" relative="1" as="geometry">
            <mxPoint x="860" y="170" as="sourcePoint" />
            <mxPoint x="930" y="170" as="targetPoint" />
          </mxGeometry>
        </mxCell>
        <mxCell id="fMZIvA2q4rGcYtPjZDwC-20" value="" style="endArrow=none;html=1;rounded=0;" parent="1" edge="1">
          <mxGeometry width="50" height="50" relative="1" as="geometry">
            <mxPoint x="860" y="190" as="sourcePoint" />
            <mxPoint x="930" y="190" as="targetPoint" />
          </mxGeometry>
        </mxCell>
        <mxCell id="fMZIvA2q4rGcYtPjZDwC-22" value="" style="endArrow=none;html=1;rounded=0;" parent="1" edge="1">
          <mxGeometry width="50" height="50" relative="1" as="geometry">
            <mxPoint x="860" y="230" as="sourcePoint" />
            <mxPoint x="930" y="230" as="targetPoint" />
          </mxGeometry>
        </mxCell>
        <mxCell id="fMZIvA2q4rGcYtPjZDwC-23" value="" style="endArrow=none;html=1;rounded=0;" parent="1" edge="1">
          <mxGeometry width="50" height="50" relative="1" as="geometry">
            <mxPoint x="860" y="250" as="sourcePoint" />
            <mxPoint x="930" y="250" as="targetPoint" />
          </mxGeometry>
        </mxCell>
        <mxCell id="fMZIvA2q4rGcYtPjZDwC-24" value="" style="endArrow=none;html=1;rounded=0;" parent="1" edge="1">
          <mxGeometry width="50" height="50" relative="1" as="geometry">
            <mxPoint x="860" y="270" as="sourcePoint" />
            <mxPoint x="930" y="270" as="targetPoint" />
          </mxGeometry>
        </mxCell>
        <mxCell id="fMZIvA2q4rGcYtPjZDwC-25" value="3.3V/VDD" style="text;html=1;strokeColor=none;fillColor=none;align=center;verticalAlign=middle;whiteSpace=wrap;rounded=0;" parent="1" vertex="1">
          <mxGeometry x="860" y="130" width="60" height="30" as="geometry" />
        </mxCell>
        <mxCell id="fMZIvA2q4rGcYtPjZDwC-26" value="D1/MOSI" style="text;html=1;strokeColor=none;fillColor=none;align=center;verticalAlign=middle;whiteSpace=wrap;rounded=0;" parent="1" vertex="1">
          <mxGeometry x="860" y="150" width="60" height="30" as="geometry" />
        </mxCell>
        <mxCell id="fMZIvA2q4rGcYtPjZDwC-27" value="D0/SCK" style="text;html=1;strokeColor=none;fillColor=none;align=center;verticalAlign=middle;whiteSpace=wrap;rounded=0;" parent="1" vertex="1">
          <mxGeometry x="860" y="170" width="60" height="30" as="geometry" />
        </mxCell>
        <mxCell id="fMZIvA2q4rGcYtPjZDwC-29" value="D/C" style="text;html=1;strokeColor=none;fillColor=none;align=center;verticalAlign=middle;whiteSpace=wrap;rounded=0;" parent="1" vertex="1">
          <mxGeometry x="860" y="210" width="60" height="30" as="geometry" />
        </mxCell>
        <mxCell id="fMZIvA2q4rGcYtPjZDwC-30" value="RST" style="text;html=1;strokeColor=none;fillColor=none;align=center;verticalAlign=middle;whiteSpace=wrap;rounded=0;" parent="1" vertex="1">
          <mxGeometry x="860" y="230" width="60" height="30" as="geometry" />
        </mxCell>
        <mxCell id="fMZIvA2q4rGcYtPjZDwC-31" value="CS" style="text;html=1;strokeColor=none;fillColor=none;align=center;verticalAlign=middle;whiteSpace=wrap;rounded=0;" parent="1" vertex="1">
          <mxGeometry x="860" y="250" width="60" height="30" as="geometry" />
        </mxCell>
        <mxCell id="fMZIvA2q4rGcYtPjZDwC-32" value="GND" style="text;html=1;strokeColor=none;fillColor=none;align=center;verticalAlign=middle;whiteSpace=wrap;rounded=0;" parent="1" vertex="1">
          <mxGeometry x="860" y="110" width="60" height="30" as="geometry" />
        </mxCell>
        <mxCell id="fMZIvA2q4rGcYtPjZDwC-36" value="" style="endArrow=none;html=1;rounded=0;fillColor=#dae8fc;strokeColor=#6c8ebf;entryX=0.5;entryY=0;entryDx=0;entryDy=0;entryPerimeter=0;" parent="1" target="7R_XqbU-Kz40ECOSwQvE-13" edge="1">
          <mxGeometry width="50" height="50" relative="1" as="geometry">
            <mxPoint x="870" y="130" as="sourcePoint" />
            <mxPoint x="830" y="100" as="targetPoint" />
            <Array as="points">
              <mxPoint x="835" y="130" />
            </Array>
          </mxGeometry>
        </mxCell>
        <mxCell id="fMZIvA2q4rGcYtPjZDwC-38" value="" style="endArrow=none;html=1;rounded=0;entryX=0;entryY=0;entryDx=0;entryDy=0;fillColor=#dae8fc;strokeColor=#6c8ebf;" parent="1" target="fMZIvA2q4rGcYtPjZDwC-26" edge="1">
          <mxGeometry width="50" height="50" relative="1" as="geometry">
            <mxPoint x="790" y="110" as="sourcePoint" />
            <mxPoint x="830" y="220" as="targetPoint" />
            <Array as="points">
              <mxPoint x="790" y="150" />
            </Array>
          </mxGeometry>
        </mxCell>
        <mxCell id="fMZIvA2q4rGcYtPjZDwC-39" value="" style="endArrow=none;html=1;rounded=0;fillColor=#dae8fc;strokeColor=#6c8ebf;" parent="1" edge="1">
          <mxGeometry width="50" height="50" relative="1" as="geometry">
            <mxPoint x="770" y="110" as="sourcePoint" />
            <mxPoint x="810" y="110" as="targetPoint" />
          </mxGeometry>
        </mxCell>
        <mxCell id="fMZIvA2q4rGcYtPjZDwC-40" value="" style="endArrow=none;html=1;rounded=0;entryX=0;entryY=0;entryDx=0;entryDy=0;fillColor=#dae8fc;strokeColor=#6c8ebf;" parent="1" target="fMZIvA2q4rGcYtPjZDwC-30" edge="1">
          <mxGeometry width="50" height="50" relative="1" as="geometry">
            <mxPoint x="700" y="330" as="sourcePoint" />
            <mxPoint x="800" y="270" as="targetPoint" />
            <Array as="points">
              <mxPoint x="760" y="330" />
              <mxPoint x="760" y="230" />
            </Array>
          </mxGeometry>
        </mxCell>
        <mxCell id="fMZIvA2q4rGcYtPjZDwC-41" value="" style="endArrow=none;html=1;rounded=0;entryX=0;entryY=0;entryDx=0;entryDy=0;fillColor=#dae8fc;strokeColor=#6c8ebf;" parent="1" target="fMZIvA2q4rGcYtPjZDwC-31" edge="1">
          <mxGeometry width="50" height="50" relative="1" as="geometry">
            <mxPoint x="700" y="310" as="sourcePoint" />
            <mxPoint x="860" y="210" as="targetPoint" />
            <Array as="points">
              <mxPoint x="780" y="310" />
              <mxPoint x="780" y="250" />
            </Array>
          </mxGeometry>
        </mxCell>
        <mxCell id="fMZIvA2q4rGcYtPjZDwC-42" value="" style="endArrow=none;html=1;rounded=0;fillColor=#dae8fc;strokeColor=#6c8ebf;" parent="1" edge="1">
          <mxGeometry width="50" height="50" relative="1" as="geometry">
            <mxPoint x="700" y="290" as="sourcePoint" />
            <mxPoint x="870" y="270" as="targetPoint" />
            <Array as="points">
              <mxPoint x="800" y="290" />
              <mxPoint x="800" y="270" />
            </Array>
          </mxGeometry>
        </mxCell>
        <mxCell id="fMZIvA2q4rGcYtPjZDwC-43" value="" style="endArrow=none;html=1;rounded=0;entryX=0;entryY=0;entryDx=0;entryDy=0;fillColor=#dae8fc;strokeColor=#6c8ebf;" parent="1" target="fMZIvA2q4rGcYtPjZDwC-27" edge="1">
          <mxGeometry width="50" height="50" relative="1" as="geometry">
            <mxPoint x="380" y="350" as="sourcePoint" />
            <mxPoint x="680" y="260" as="targetPoint" />
            <Array as="points">
              <mxPoint x="380" y="350" />
              <mxPoint x="380" y="470" />
              <mxPoint x="810" y="470" />
              <mxPoint x="810" y="170" />
            </Array>
          </mxGeometry>
        </mxCell>
        <mxCell id="fMZIvA2q4rGcYtPjZDwC-44" value="" style="endArrow=none;html=1;rounded=0;entryX=0.054;entryY=-0.003;entryDx=0;entryDy=0;fillColor=#dae8fc;strokeColor=#6c8ebf;entryPerimeter=0;" parent="1" edge="1">
          <mxGeometry width="50" height="50" relative="1" as="geometry">
            <mxPoint x="390" y="330" as="sourcePoint" />
            <mxPoint x="863.2399999999998" y="189.91000000000008" as="targetPoint" />
            <Array as="points">
              <mxPoint x="390" y="330" />
              <mxPoint x="390" y="480" />
              <mxPoint x="820" y="480" />
              <mxPoint x="820" y="190" />
            </Array>
          </mxGeometry>
        </mxCell>
        <mxCell id="fMZIvA2q4rGcYtPjZDwC-45" value="" style="whiteSpace=wrap;html=1;aspect=fixed;fillColor=#ffe6cc;strokeColor=#d79b00;" parent="1" vertex="1">
          <mxGeometry x="160" y="120" width="95" height="95" as="geometry" />
        </mxCell>
        <mxCell id="fMZIvA2q4rGcYtPjZDwC-46" value="U3" style="text;html=1;strokeColor=none;fillColor=none;align=center;verticalAlign=middle;whiteSpace=wrap;rounded=0;" parent="1" vertex="1">
          <mxGeometry x="150" y="100" width="60" height="30" as="geometry" />
        </mxCell>
        <mxCell id="fMZIvA2q4rGcYtPjZDwC-47" value="M95320" style="text;html=1;strokeColor=none;fillColor=none;align=center;verticalAlign=middle;whiteSpace=wrap;rounded=0;" parent="1" vertex="1">
          <mxGeometry x="200" y="100" width="60" height="30" as="geometry" />
        </mxCell>
        <mxCell id="fMZIvA2q4rGcYtPjZDwC-48" value="EEPROM" style="text;html=1;strokeColor=none;fillColor=none;align=center;verticalAlign=middle;whiteSpace=wrap;rounded=0;" parent="1" vertex="1">
          <mxGeometry x="177.5" y="152.5" width="60" height="30" as="geometry" />
        </mxCell>
        <mxCell id="fMZIvA2q4rGcYtPjZDwC-56" value="" style="endArrow=none;html=1;rounded=0;" parent="1" edge="1">
          <mxGeometry width="50" height="50" relative="1" as="geometry">
            <mxPoint x="90" y="144.41" as="sourcePoint" />
            <mxPoint x="160" y="144.41" as="targetPoint" />
          </mxGeometry>
        </mxCell>
        <mxCell id="fMZIvA2q4rGcYtPjZDwC-57" value="" style="endArrow=none;html=1;rounded=0;" parent="1" edge="1">
          <mxGeometry width="50" height="50" relative="1" as="geometry">
            <mxPoint x="90" y="164.41" as="sourcePoint" />
            <mxPoint x="160" y="164.41" as="targetPoint" />
          </mxGeometry>
        </mxCell>
        <mxCell id="fMZIvA2q4rGcYtPjZDwC-58" value="" style="endArrow=none;html=1;rounded=0;" parent="1" edge="1">
          <mxGeometry width="50" height="50" relative="1" as="geometry">
            <mxPoint x="90" y="184.41" as="sourcePoint" />
            <mxPoint x="160" y="184.41" as="targetPoint" />
          </mxGeometry>
        </mxCell>
        <mxCell id="fMZIvA2q4rGcYtPjZDwC-59" value="" style="endArrow=none;html=1;rounded=0;" parent="1" edge="1">
          <mxGeometry width="50" height="50" relative="1" as="geometry">
            <mxPoint x="90" y="204.41" as="sourcePoint" />
            <mxPoint x="160" y="204.41" as="targetPoint" />
          </mxGeometry>
        </mxCell>
        <mxCell id="fMZIvA2q4rGcYtPjZDwC-60" value="S" style="text;html=1;strokeColor=none;fillColor=none;align=center;verticalAlign=middle;whiteSpace=wrap;rounded=0;" parent="1" vertex="1">
          <mxGeometry x="90" y="124.41" width="60" height="30" as="geometry" />
        </mxCell>
        <mxCell id="fMZIvA2q4rGcYtPjZDwC-61" value="Q" style="text;html=1;strokeColor=none;fillColor=none;align=center;verticalAlign=middle;whiteSpace=wrap;rounded=0;" parent="1" vertex="1">
          <mxGeometry x="90" y="144.41" width="60" height="30" as="geometry" />
        </mxCell>
        <mxCell id="fMZIvA2q4rGcYtPjZDwC-62" value="W" style="text;html=1;strokeColor=none;fillColor=none;align=center;verticalAlign=middle;whiteSpace=wrap;rounded=0;" parent="1" vertex="1">
          <mxGeometry x="80" y="160" width="80" height="30" as="geometry" />
        </mxCell>
        <mxCell id="fMZIvA2q4rGcYtPjZDwC-63" value="" style="endArrow=none;html=1;rounded=0;" parent="1" edge="1">
          <mxGeometry width="50" height="50" relative="1" as="geometry">
            <mxPoint x="255" y="140" as="sourcePoint" />
            <mxPoint x="325" y="140" as="targetPoint" />
          </mxGeometry>
        </mxCell>
        <mxCell id="fMZIvA2q4rGcYtPjZDwC-64" value="" style="endArrow=none;html=1;rounded=0;" parent="1" edge="1">
          <mxGeometry width="50" height="50" relative="1" as="geometry">
            <mxPoint x="255" y="160" as="sourcePoint" />
            <mxPoint x="325" y="160" as="targetPoint" />
          </mxGeometry>
        </mxCell>
        <mxCell id="fMZIvA2q4rGcYtPjZDwC-65" value="" style="endArrow=none;html=1;rounded=0;" parent="1" edge="1">
          <mxGeometry width="50" height="50" relative="1" as="geometry">
            <mxPoint x="255" y="180" as="sourcePoint" />
            <mxPoint x="325" y="180" as="targetPoint" />
          </mxGeometry>
        </mxCell>
        <mxCell id="fMZIvA2q4rGcYtPjZDwC-66" value="" style="endArrow=none;html=1;rounded=0;" parent="1" edge="1">
          <mxGeometry width="50" height="50" relative="1" as="geometry">
            <mxPoint x="255" y="200" as="sourcePoint" />
            <mxPoint x="325" y="200" as="targetPoint" />
          </mxGeometry>
        </mxCell>
        <mxCell id="fMZIvA2q4rGcYtPjZDwC-67" value="VCC" style="text;html=1;strokeColor=none;fillColor=none;align=center;verticalAlign=middle;whiteSpace=wrap;rounded=0;" parent="1" vertex="1">
          <mxGeometry x="255" y="120" width="60" height="30" as="geometry" />
        </mxCell>
        <mxCell id="fMZIvA2q4rGcYtPjZDwC-68" value="HOLD" style="text;html=1;strokeColor=none;fillColor=none;align=center;verticalAlign=middle;whiteSpace=wrap;rounded=0;" parent="1" vertex="1">
          <mxGeometry x="255" y="140" width="60" height="30" as="geometry" />
        </mxCell>
        <mxCell id="fMZIvA2q4rGcYtPjZDwC-69" value="C" style="text;html=1;strokeColor=none;fillColor=none;align=center;verticalAlign=middle;whiteSpace=wrap;rounded=0;" parent="1" vertex="1">
          <mxGeometry x="255" y="160" width="60" height="30" as="geometry" />
        </mxCell>
        <mxCell id="fMZIvA2q4rGcYtPjZDwC-70" value="VSS" style="text;html=1;strokeColor=none;fillColor=none;align=center;verticalAlign=middle;whiteSpace=wrap;rounded=0;" parent="1" vertex="1">
          <mxGeometry x="90" y="182.5" width="60" height="30" as="geometry" />
        </mxCell>
        <mxCell id="fMZIvA2q4rGcYtPjZDwC-71" value="D" style="text;html=1;strokeColor=none;fillColor=none;align=center;verticalAlign=middle;whiteSpace=wrap;rounded=0;" parent="1" vertex="1">
          <mxGeometry x="255" y="180" width="60" height="30" as="geometry" />
        </mxCell>
        <mxCell id="fMZIvA2q4rGcYtPjZDwC-85" value="EEPROM Signals" style="swimlane;fontStyle=0;childLayout=stackLayout;horizontal=1;startSize=26;fillColor=none;horizontalStack=0;resizeParent=1;resizeParentMax=0;resizeLast=0;collapsible=1;marginBottom=0;html=1;" parent="1" vertex="1">
          <mxGeometry x="140" y="240" width="140" height="104" as="geometry">
            <mxRectangle x="-160" y="20.409999999999997" width="140" height="30" as="alternateBounds" />
          </mxGeometry>
        </mxCell>
        <mxCell id="fMZIvA2q4rGcYtPjZDwC-86" value="Q: Serial Data Output" style="text;strokeColor=none;fillColor=none;align=left;verticalAlign=top;spacingLeft=4;spacingRight=4;overflow=hidden;rotatable=0;points=[[0,0.5],[1,0.5]];portConstraint=eastwest;whiteSpace=wrap;html=1;" parent="fMZIvA2q4rGcYtPjZDwC-85" vertex="1">
          <mxGeometry y="26" width="140" height="26" as="geometry" />
        </mxCell>
        <mxCell id="fMZIvA2q4rGcYtPjZDwC-87" value="D: Serial Data Input" style="text;strokeColor=none;fillColor=none;align=left;verticalAlign=top;spacingLeft=4;spacingRight=4;overflow=hidden;rotatable=0;points=[[0,0.5],[1,0.5]];portConstraint=eastwest;whiteSpace=wrap;html=1;" parent="fMZIvA2q4rGcYtPjZDwC-85" vertex="1">
          <mxGeometry y="52" width="140" height="26" as="geometry" />
        </mxCell>
        <mxCell id="fMZIvA2q4rGcYtPjZDwC-88" value="W: Write Protect&amp;nbsp;" style="text;strokeColor=none;fillColor=none;align=left;verticalAlign=top;spacingLeft=4;spacingRight=4;overflow=hidden;rotatable=0;points=[[0,0.5],[1,0.5]];portConstraint=eastwest;whiteSpace=wrap;html=1;" parent="fMZIvA2q4rGcYtPjZDwC-85" vertex="1">
          <mxGeometry y="78" width="140" height="26" as="geometry" />
        </mxCell>
        <mxCell id="fMZIvA2q4rGcYtPjZDwC-89" value="" style="endArrow=none;html=1;rounded=0;exitX=0;exitY=0;exitDx=0;exitDy=0;fillColor=#fff2cc;strokeColor=#d6b656;" parent="1" source="fMZIvA2q4rGcYtPjZDwC-61" edge="1">
          <mxGeometry width="50" height="50" relative="1" as="geometry">
            <mxPoint x="360" y="240" as="sourcePoint" />
            <mxPoint x="700" y="390" as="targetPoint" />
            <Array as="points">
              <mxPoint x="40" y="144" />
              <mxPoint x="40" y="70" />
              <mxPoint x="740" y="70" />
              <mxPoint x="740" y="390" />
            </Array>
          </mxGeometry>
        </mxCell>
        <mxCell id="fMZIvA2q4rGcYtPjZDwC-90" value="" style="endArrow=none;html=1;rounded=0;exitX=0.158;exitY=0.178;exitDx=0;exitDy=0;exitPerimeter=0;entryX=0;entryY=0;entryDx=0;entryDy=0;fillColor=#fff2cc;strokeColor=#d6b656;" parent="1" source="fMZIvA2q4rGcYtPjZDwC-62" target="fMZIvA2q4rGcYtPjZDwC-11" edge="1">
          <mxGeometry width="50" height="50" relative="1" as="geometry">
            <mxPoint x="360" y="240" as="sourcePoint" />
            <mxPoint x="410" y="190" as="targetPoint" />
            <Array as="points">
              <mxPoint x="40" y="165" />
              <mxPoint x="40" y="370" />
            </Array>
          </mxGeometry>
        </mxCell>
        <mxCell id="fMZIvA2q4rGcYtPjZDwC-91" value="" style="endArrow=none;html=1;rounded=0;exitX=0;exitY=0;exitDx=0;exitDy=0;fillColor=#fff2cc;strokeColor=#d6b656;" parent="1" source="fMZIvA2q4rGcYtPjZDwC-70" edge="1">
          <mxGeometry width="50" height="50" relative="1" as="geometry">
            <mxPoint x="350" y="280" as="sourcePoint" />
            <mxPoint x="90" y="230" as="targetPoint" />
          </mxGeometry>
        </mxCell>
        <mxCell id="fMZIvA2q4rGcYtPjZDwC-92" value="" style="endArrow=none;html=1;rounded=0;fillColor=#fff2cc;strokeColor=#d6b656;" parent="1" edge="1">
          <mxGeometry width="50" height="50" relative="1" as="geometry">
            <mxPoint x="70" y="230" as="sourcePoint" />
            <mxPoint x="110" y="230" as="targetPoint" />
          </mxGeometry>
        </mxCell>
        <mxCell id="fMZIvA2q4rGcYtPjZDwC-93" value="3.3V" style="text;html=1;strokeColor=none;fillColor=none;align=center;verticalAlign=middle;whiteSpace=wrap;rounded=0;" parent="1" vertex="1">
          <mxGeometry x="760" y="85" width="60" height="30" as="geometry" />
        </mxCell>
        <mxCell id="fMZIvA2q4rGcYtPjZDwC-95" value="GND" style="text;html=1;strokeColor=none;fillColor=none;align=center;verticalAlign=middle;whiteSpace=wrap;rounded=0;" parent="1" vertex="1">
          <mxGeometry x="60" y="230" width="60" height="30" as="geometry" />
        </mxCell>
        <mxCell id="fMZIvA2q4rGcYtPjZDwC-96" value="" style="endArrow=none;html=1;rounded=0;exitX=1.136;exitY=-0.026;exitDx=0;exitDy=0;exitPerimeter=0;fillColor=#ffe6cc;strokeColor=#d79b00;" parent="1" source="fMZIvA2q4rGcYtPjZDwC-68" edge="1">
          <mxGeometry width="50" height="50" relative="1" as="geometry">
            <mxPoint x="370" y="280" as="sourcePoint" />
            <mxPoint x="323" y="110" as="targetPoint" />
          </mxGeometry>
        </mxCell>
        <mxCell id="fMZIvA2q4rGcYtPjZDwC-97" value="" style="endArrow=none;html=1;rounded=0;fillColor=#fff2cc;strokeColor=#d6b656;" parent="1" edge="1">
          <mxGeometry width="50" height="50" relative="1" as="geometry">
            <mxPoint x="300" y="110" as="sourcePoint" />
            <mxPoint x="340" y="110" as="targetPoint" />
          </mxGeometry>
        </mxCell>
        <mxCell id="fMZIvA2q4rGcYtPjZDwC-98" value="3.3V" style="text;html=1;strokeColor=none;fillColor=none;align=center;verticalAlign=middle;whiteSpace=wrap;rounded=0;" parent="1" vertex="1">
          <mxGeometry x="290" y="90" width="60" height="30" as="geometry" />
        </mxCell>
        <mxCell id="fMZIvA2q4rGcYtPjZDwC-99" value="" style="endArrow=none;html=1;rounded=0;fillColor=#fff2cc;strokeColor=#d6b656;" parent="1" edge="1">
          <mxGeometry width="50" height="50" relative="1" as="geometry">
            <mxPoint x="320" y="160" as="sourcePoint" />
            <mxPoint x="700" y="370" as="targetPoint" />
            <Array as="points">
              <mxPoint x="380" y="160" />
              <mxPoint x="380" y="80" />
              <mxPoint x="720" y="80" />
              <mxPoint x="720" y="220" />
              <mxPoint x="720" y="370" />
            </Array>
          </mxGeometry>
        </mxCell>
        <mxCell id="fMZIvA2q4rGcYtPjZDwC-100" value="" style="endArrow=none;html=1;rounded=0;entryX=1.136;entryY=-0.038;entryDx=0;entryDy=0;entryPerimeter=0;fillColor=#ffe6cc;strokeColor=#d79b00;" parent="1" target="fMZIvA2q4rGcYtPjZDwC-71" edge="1">
          <mxGeometry width="50" height="50" relative="1" as="geometry">
            <mxPoint x="430" y="330" as="sourcePoint" />
            <mxPoint x="380" y="280" as="targetPoint" />
            <Array as="points">
              <mxPoint x="360" y="330" />
              <mxPoint x="360" y="179" />
            </Array>
          </mxGeometry>
        </mxCell>
        <mxCell id="fMZIvA2q4rGcYtPjZDwC-101" value="" style="endArrow=none;html=1;rounded=0;entryX=1.136;entryY=-0.038;entryDx=0;entryDy=0;entryPerimeter=0;fillColor=#ffe6cc;strokeColor=#d79b00;" parent="1" edge="1">
          <mxGeometry width="50" height="50" relative="1" as="geometry">
            <mxPoint x="430" y="351" as="sourcePoint" />
            <mxPoint x="323" y="200" as="targetPoint" />
            <Array as="points">
              <mxPoint x="360" y="351" />
              <mxPoint x="350" y="351" />
              <mxPoint x="350" y="200" />
            </Array>
          </mxGeometry>
        </mxCell>
        <mxCell id="fMZIvA2q4rGcYtPjZDwC-106" value="" style="ellipse;shape=doubleEllipse;whiteSpace=wrap;html=1;aspect=fixed;fillColor=none;strokeWidth=0;" parent="1" vertex="1">
          <mxGeometry x="380" y="320" width="20" height="20" as="geometry" />
        </mxCell>
        <mxCell id="fMZIvA2q4rGcYtPjZDwC-108" value="" style="ellipse;shape=doubleEllipse;whiteSpace=wrap;html=1;aspect=fixed;fillColor=none;strokeWidth=0;" parent="1" vertex="1">
          <mxGeometry x="370" y="340" width="20" height="20" as="geometry" />
        </mxCell>
        <mxCell id="fMZIvA2q4rGcYtPjZDwC-111" value="" style="rounded=0;whiteSpace=wrap;html=1;fillColor=#e1d5e7;strokeColor=#9673a6;" parent="1" vertex="1">
          <mxGeometry x="950" y="320" width="80" height="50" as="geometry" />
        </mxCell>
        <mxCell id="fMZIvA2q4rGcYtPjZDwC-112" value="" style="rounded=0;whiteSpace=wrap;html=1;fillColor=#e1d5e7;strokeColor=#9673a6;" parent="1" vertex="1">
          <mxGeometry x="950" y="420" width="80" height="50" as="geometry" />
        </mxCell>
        <mxCell id="fMZIvA2q4rGcYtPjZDwC-113" value="P1&lt;span style=&quot;white-space: pre;&quot;&gt;&#x9;&lt;/span&gt;Header" style="text;html=1;strokeColor=none;fillColor=none;align=center;verticalAlign=middle;whiteSpace=wrap;rounded=0;" parent="1" vertex="1">
          <mxGeometry x="960" y="300" width="60" height="30" as="geometry" />
        </mxCell>
        <mxCell id="fMZIvA2q4rGcYtPjZDwC-114" value="P2&lt;span style=&quot;white-space: pre;&quot;&gt;&#x9;&lt;/span&gt;Header" style="text;html=1;strokeColor=none;fillColor=none;align=center;verticalAlign=middle;whiteSpace=wrap;rounded=0;" parent="1" vertex="1">
          <mxGeometry x="960" y="400" width="60" height="30" as="geometry" />
        </mxCell>
        <mxCell id="fMZIvA2q4rGcYtPjZDwC-117" style="edgeStyle=orthogonalEdgeStyle;rounded=0;orthogonalLoop=1;jettySize=auto;html=1;entryX=0.497;entryY=-0.212;entryDx=0;entryDy=0;entryPerimeter=0;endArrow=none;endFill=0;fillColor=#e1d5e7;strokeColor=#9673a6;" parent="1" source="fMZIvA2q4rGcYtPjZDwC-115" target="fMZIvA2q4rGcYtPjZDwC-116" edge="1">
          <mxGeometry relative="1" as="geometry" />
        </mxCell>
        <mxCell id="fMZIvA2q4rGcYtPjZDwC-115" value="" style="pointerEvents=1;verticalLabelPosition=bottom;shadow=0;dashed=0;align=center;html=1;verticalAlign=top;shape=mxgraph.electrical.capacitors.capacitor_1;direction=south;fillColor=#e1d5e7;strokeColor=#9673a6;" parent="1" vertex="1">
          <mxGeometry x="862.5" y="450" width="25" height="32.5" as="geometry" />
        </mxCell>
        <mxCell id="fMZIvA2q4rGcYtPjZDwC-120" style="edgeStyle=orthogonalEdgeStyle;rounded=0;orthogonalLoop=1;jettySize=auto;html=1;endArrow=none;endFill=0;fillColor=#e1d5e7;strokeColor=#9673a6;" parent="1" source="fMZIvA2q4rGcYtPjZDwC-116" edge="1">
          <mxGeometry relative="1" as="geometry">
            <mxPoint x="875" y="490" as="targetPoint" />
          </mxGeometry>
        </mxCell>
        <mxCell id="fMZIvA2q4rGcYtPjZDwC-116" value="" style="pointerEvents=1;verticalLabelPosition=bottom;shadow=0;dashed=0;align=center;html=1;verticalAlign=top;shape=mxgraph.electrical.signal_sources.signal_ground;fillColor=#e1d5e7;strokeColor=#9673a6;" parent="1" vertex="1">
          <mxGeometry x="860" y="510" width="30" height="20" as="geometry" />
        </mxCell>
        <mxCell id="fMZIvA2q4rGcYtPjZDwC-119" value="" style="endArrow=none;html=1;rounded=0;exitX=0;exitY=0.5;exitDx=0;exitDy=0;exitPerimeter=0;fillColor=#e1d5e7;strokeColor=#9673a6;entryX=0.01;entryY=0.583;entryDx=0;entryDy=0;entryPerimeter=0;" parent="1" source="fMZIvA2q4rGcYtPjZDwC-115" target="fMZIvA2q4rGcYtPjZDwC-112" edge="1">
          <mxGeometry width="50" height="50" relative="1" as="geometry">
            <mxPoint x="880" y="450" as="sourcePoint" />
            <mxPoint x="930" y="450" as="targetPoint" />
          </mxGeometry>
        </mxCell>
        <mxCell id="7R_XqbU-Kz40ECOSwQvE-5" value="" style="pointerEvents=1;verticalLabelPosition=bottom;shadow=0;dashed=0;align=center;html=1;verticalAlign=top;shape=mxgraph.electrical.signal_sources.signal_ground;direction=west;" parent="1" vertex="1">
          <mxGeometry x="1040" y="275" width="30" height="20" as="geometry" />
        </mxCell>
        <mxCell id="7R_XqbU-Kz40ECOSwQvE-8" value="" style="endArrow=none;html=1;rounded=0;" parent="1" edge="1">
          <mxGeometry width="50" height="50" relative="1" as="geometry">
            <mxPoint x="912.5" y="330" as="sourcePoint" />
            <mxPoint x="950" y="330" as="targetPoint" />
          </mxGeometry>
        </mxCell>
        <mxCell id="7R_XqbU-Kz40ECOSwQvE-10" value="" style="endArrow=none;html=1;rounded=0;" parent="1" edge="1">
          <mxGeometry width="50" height="50" relative="1" as="geometry">
            <mxPoint x="910" y="330" as="sourcePoint" />
            <mxPoint x="950" y="330" as="targetPoint" />
          </mxGeometry>
        </mxCell>
        <mxCell id="7R_XqbU-Kz40ECOSwQvE-11" value="" style="pointerEvents=1;verticalLabelPosition=bottom;shadow=0;dashed=0;align=center;html=1;verticalAlign=top;shape=mxgraph.electrical.capacitors.capacitor_1;direction=south;fillColor=#e1d5e7;strokeColor=#9673a6;" parent="1" vertex="1">
          <mxGeometry x="1042.5" y="295" width="25" height="32.5" as="geometry" />
        </mxCell>
        <mxCell id="7R_XqbU-Kz40ECOSwQvE-12" value="" style="endArrow=none;html=1;rounded=0;entryX=1;entryY=0.5;entryDx=0;entryDy=0;entryPerimeter=0;" parent="1" target="7R_XqbU-Kz40ECOSwQvE-11" edge="1">
          <mxGeometry width="50" height="50" relative="1" as="geometry">
            <mxPoint x="1030" y="327.5" as="sourcePoint" />
            <mxPoint x="1050" y="328" as="targetPoint" />
          </mxGeometry>
        </mxCell>
        <mxCell id="7R_XqbU-Kz40ECOSwQvE-13" value="" style="pointerEvents=1;verticalLabelPosition=bottom;shadow=0;dashed=0;align=center;html=1;verticalAlign=top;shape=mxgraph.electrical.signal_sources.signal_ground;direction=west;" parent="1" vertex="1">
          <mxGeometry x="820" y="80" width="30" height="20" as="geometry" />
        </mxCell>
        <mxCell id="7R_XqbU-Kz40ECOSwQvE-14" value="" style="endArrow=none;html=1;rounded=0;" parent="1" edge="1">
          <mxGeometry width="50" height="50" relative="1" as="geometry">
            <mxPoint x="880" y="330" as="sourcePoint" />
            <mxPoint x="950" y="330" as="targetPoint" />
          </mxGeometry>
        </mxCell>
        <mxCell id="7R_XqbU-Kz40ECOSwQvE-15" value="" style="endArrow=none;html=1;rounded=0;fillColor=#e1d5e7;strokeColor=#9673a6;" parent="1" edge="1">
          <mxGeometry width="50" height="50" relative="1" as="geometry">
            <mxPoint x="880" y="330" as="sourcePoint" />
            <mxPoint x="950" y="330" as="targetPoint" />
          </mxGeometry>
        </mxCell>
        <mxCell id="7R_XqbU-Kz40ECOSwQvE-16" value="" style="endArrow=none;html=1;rounded=0;" parent="1" edge="1">
          <mxGeometry width="50" height="50" relative="1" as="geometry">
            <mxPoint x="880" y="330" as="sourcePoint" />
            <mxPoint x="880" y="310" as="targetPoint" />
          </mxGeometry>
        </mxCell>
        <mxCell id="7R_XqbU-Kz40ECOSwQvE-17" value="" style="endArrow=none;html=1;rounded=0;" parent="1" edge="1">
          <mxGeometry width="50" height="50" relative="1" as="geometry">
            <mxPoint x="860" y="309.47" as="sourcePoint" />
            <mxPoint x="900" y="309" as="targetPoint" />
          </mxGeometry>
        </mxCell>
        <mxCell id="7R_XqbU-Kz40ECOSwQvE-18" value="3.3V" style="text;html=1;strokeColor=none;fillColor=none;align=center;verticalAlign=middle;whiteSpace=wrap;rounded=0;" parent="1" vertex="1">
          <mxGeometry x="850" y="290" width="60" height="30" as="geometry" />
        </mxCell>
        <mxCell id="7R_XqbU-Kz40ECOSwQvE-19" value="" style="endArrow=none;html=1;rounded=0;exitX=0.017;exitY=0.656;exitDx=0;exitDy=0;exitPerimeter=0;fillColor=#e1d5e7;strokeColor=#9673a6;" parent="1" source="fMZIvA2q4rGcYtPjZDwC-5" edge="1">
          <mxGeometry width="50" height="50" relative="1" as="geometry">
            <mxPoint x="390" y="270" as="sourcePoint" />
            <mxPoint x="950" y="359.09" as="targetPoint" />
            <Array as="points">
              <mxPoint x="400" y="270" />
              <mxPoint x="400" y="520" />
              <mxPoint x="840" y="520" />
              <mxPoint x="840" y="359" />
            </Array>
          </mxGeometry>
        </mxCell>
        <mxCell id="7R_XqbU-Kz40ECOSwQvE-20" value="" style="endArrow=none;html=1;rounded=0;fillColor=#e1d5e7;strokeColor=#9673a6;exitX=0;exitY=0.5;exitDx=0;exitDy=0;exitPerimeter=0;" parent="1" source="7R_XqbU-Kz40ECOSwQvE-21" edge="1">
          <mxGeometry width="50" height="50" relative="1" as="geometry">
            <mxPoint x="610" y="560" as="sourcePoint" />
            <mxPoint x="950" y="430" as="targetPoint" />
            <Array as="points">
              <mxPoint x="850" y="555" />
              <mxPoint x="850" y="430" />
            </Array>
          </mxGeometry>
        </mxCell>
        <mxCell id="7R_XqbU-Kz40ECOSwQvE-21" value="" style="pointerEvents=1;fillColor=#e1d5e7;verticalLabelPosition=bottom;shadow=0;dashed=0;align=center;html=1;verticalAlign=top;shape=mxgraph.electrical.diodes.schottky_diode;direction=east;strokeColor=#9673a6;" parent="1" vertex="1">
          <mxGeometry x="550" y="540" width="50" height="30" as="geometry" />
        </mxCell>
        <mxCell id="7R_XqbU-Kz40ECOSwQvE-23" value="" style="endArrow=none;html=1;rounded=0;exitX=0;exitY=0.5;exitDx=0;exitDy=0;exitPerimeter=0;entryX=0.046;entryY=0.663;entryDx=0;entryDy=0;entryPerimeter=0;fillColor=#e1d5e7;strokeColor=#9673a6;" parent="1" source="7R_XqbU-Kz40ECOSwQvE-21" target="fMZIvA2q4rGcYtPjZDwC-7" edge="1">
          <mxGeometry width="50" height="50" relative="1" as="geometry">
            <mxPoint x="630" y="470" as="sourcePoint" />
            <mxPoint x="700" y="470" as="targetPoint" />
            <Array as="points">
              <mxPoint x="410" y="555" />
              <mxPoint x="410" y="310" />
            </Array>
          </mxGeometry>
        </mxCell>
        <mxCell id="7R_XqbU-Kz40ECOSwQvE-24" value="Have to sketch off the original trace on the board and solder on the diode" style="text;html=1;strokeColor=default;fillColor=none;align=center;verticalAlign=middle;whiteSpace=wrap;rounded=0;dashed=1;" parent="1" vertex="1">
          <mxGeometry x="520" y="590" width="150" height="50" as="geometry" />
        </mxCell>
        <mxCell id="7R_XqbU-Kz40ECOSwQvE-25" value="" style="rounded=0;whiteSpace=wrap;html=1;fillColor=#d5e8d4;strokeColor=#82b366;" parent="1" vertex="1">
          <mxGeometry x="890" y="630" width="170" height="105" as="geometry" />
        </mxCell>
        <mxCell id="7R_XqbU-Kz40ECOSwQvE-26" value="U4" style="text;html=1;strokeColor=none;fillColor=none;align=center;verticalAlign=middle;whiteSpace=wrap;rounded=0;" parent="1" vertex="1">
          <mxGeometry x="870" y="610" width="60" height="30" as="geometry" />
        </mxCell>
        <mxCell id="7R_XqbU-Kz40ECOSwQvE-27" value="Protoboard" style="text;html=1;strokeColor=none;fillColor=none;align=center;verticalAlign=middle;whiteSpace=wrap;rounded=0;" parent="1" vertex="1">
          <mxGeometry x="1000" y="610" width="60" height="30" as="geometry" />
        </mxCell>
        <mxCell id="7R_XqbU-Kz40ECOSwQvE-30" value="" style="pointerEvents=1;verticalLabelPosition=bottom;shadow=0;dashed=0;align=center;html=1;verticalAlign=top;shape=mxgraph.electrical.signal_sources.dc_source_1;" parent="1" vertex="1">
          <mxGeometry x="1160" y="540" width="70" height="75" as="geometry" />
        </mxCell>
        <mxCell id="7R_XqbU-Kz40ECOSwQvE-31" value="5V" style="text;html=1;strokeColor=none;fillColor=none;align=center;verticalAlign=middle;whiteSpace=wrap;rounded=0;" parent="1" vertex="1">
          <mxGeometry x="1170" y="562.5" width="60" height="30" as="geometry" />
        </mxCell>
        <mxCell id="7R_XqbU-Kz40ECOSwQvE-32" value="5V power supply that connects to a wall outlet" style="text;html=1;strokeColor=default;fillColor=none;align=center;verticalAlign=middle;whiteSpace=wrap;rounded=0;dashed=1;" parent="1" vertex="1">
          <mxGeometry x="1250" y="510" width="125" height="55" as="geometry" />
        </mxCell>
        <mxCell id="7R_XqbU-Kz40ECOSwQvE-33" value="" style="endArrow=none;html=1;rounded=0;exitX=0.58;exitY=0.935;exitDx=0;exitDy=0;exitPerimeter=0;" parent="1" source="7R_XqbU-Kz40ECOSwQvE-34" edge="1">
          <mxGeometry width="50" height="50" relative="1" as="geometry">
            <mxPoint x="1160" y="670" as="sourcePoint" />
            <mxPoint x="1201" y="640" as="targetPoint" />
          </mxGeometry>
        </mxCell>
        <mxCell id="7R_XqbU-Kz40ECOSwQvE-35" value="" style="endArrow=none;html=1;rounded=0;exitX=0.58;exitY=0.935;exitDx=0;exitDy=0;exitPerimeter=0;" parent="1" source="7R_XqbU-Kz40ECOSwQvE-30" target="7R_XqbU-Kz40ECOSwQvE-34" edge="1">
          <mxGeometry width="50" height="50" relative="1" as="geometry">
            <mxPoint x="1201" y="610" as="sourcePoint" />
            <mxPoint x="1201" y="640" as="targetPoint" />
          </mxGeometry>
        </mxCell>
        <mxCell id="7R_XqbU-Kz40ECOSwQvE-34" value="" style="pointerEvents=1;verticalLabelPosition=bottom;shadow=0;dashed=0;align=center;html=1;verticalAlign=top;shape=mxgraph.electrical.signal_sources.signal_ground;" parent="1" vertex="1">
          <mxGeometry x="1185" y="640" width="30" height="20" as="geometry" />
        </mxCell>
        <mxCell id="7R_XqbU-Kz40ECOSwQvE-36" value="" style="endArrow=none;html=1;rounded=0;fillColor=#d5e8d4;strokeColor=#82b366;" parent="1" edge="1">
          <mxGeometry width="50" height="50" relative="1" as="geometry">
            <mxPoint x="1060" y="660" as="sourcePoint" />
            <mxPoint x="1150" y="550" as="targetPoint" />
            <Array as="points">
              <mxPoint x="1120" y="660" />
              <mxPoint x="1120" y="550" />
            </Array>
          </mxGeometry>
        </mxCell>
        <mxCell id="7R_XqbU-Kz40ECOSwQvE-37" value="" style="pointerEvents=1;verticalLabelPosition=bottom;shadow=0;dashed=0;align=center;html=1;verticalAlign=top;shape=mxgraph.electrical.capacitors.capacitor_1;direction=south;" parent="1" vertex="1">
          <mxGeometry x="1027.5" y="670" width="15" height="25" as="geometry" />
        </mxCell>
        <mxCell id="7R_XqbU-Kz40ECOSwQvE-38" value="" style="endArrow=none;html=1;rounded=0;exitX=0;exitY=0.5;exitDx=0;exitDy=0;exitPerimeter=0;" parent="1" source="7R_XqbU-Kz40ECOSwQvE-37" edge="1">
          <mxGeometry width="50" height="50" relative="1" as="geometry">
            <mxPoint x="990" y="660" as="sourcePoint" />
            <mxPoint x="1060" y="660" as="targetPoint" />
            <Array as="points">
              <mxPoint x="1035" y="660" />
            </Array>
          </mxGeometry>
        </mxCell>
        <mxCell id="7R_XqbU-Kz40ECOSwQvE-39" value="" style="endArrow=none;html=1;rounded=0;fillColor=#d5e8d4;strokeColor=#82b366;" parent="1" edge="1">
          <mxGeometry width="50" height="50" relative="1" as="geometry">
            <mxPoint x="820" y="660" as="sourcePoint" />
            <mxPoint x="890" y="660" as="targetPoint" />
          </mxGeometry>
        </mxCell>
        <mxCell id="7R_XqbU-Kz40ECOSwQvE-40" value="" style="endArrow=none;html=1;rounded=0;fillColor=#e1d5e7;strokeColor=#9673a6;" parent="1" edge="1">
          <mxGeometry width="50" height="50" relative="1" as="geometry">
            <mxPoint x="1120" y="550" as="sourcePoint" />
            <mxPoint x="950" y="460" as="targetPoint" />
            <Array as="points">
              <mxPoint x="920" y="550" />
              <mxPoint x="920" y="460" />
            </Array>
          </mxGeometry>
        </mxCell>
        <mxCell id="7R_XqbU-Kz40ECOSwQvE-41" value="" style="endArrow=none;html=1;rounded=0;fillColor=#d5e8d4;strokeColor=#82b366;" parent="1" edge="1">
          <mxGeometry width="50" height="50" relative="1" as="geometry">
            <mxPoint x="820" y="660" as="sourcePoint" />
            <mxPoint x="430" y="150" as="targetPoint" />
            <Array as="points">
              <mxPoint x="370" y="660" />
              <mxPoint x="370" y="180" />
              <mxPoint x="400" y="180" />
              <mxPoint x="400" y="150" />
            </Array>
          </mxGeometry>
        </mxCell>
        <mxCell id="7R_XqbU-Kz40ECOSwQvE-43" value="3.3V" style="text;html=1;strokeColor=none;fillColor=none;align=center;verticalAlign=middle;whiteSpace=wrap;rounded=0;" parent="1" vertex="1">
          <mxGeometry x="840" y="640" width="60" height="30" as="geometry" />
        </mxCell>
        <mxCell id="7R_XqbU-Kz40ECOSwQvE-44" value="" style="rounded=0;whiteSpace=wrap;html=1;" parent="1" vertex="1">
          <mxGeometry x="940" y="640" width="60" height="50" as="geometry" />
        </mxCell>
        <mxCell id="7R_XqbU-Kz40ECOSwQvE-45" value="3.3V Regulator" style="text;html=1;strokeColor=none;fillColor=none;align=center;verticalAlign=middle;whiteSpace=wrap;rounded=0;" parent="1" vertex="1">
          <mxGeometry x="940" y="645" width="60" height="30" as="geometry" />
        </mxCell>
        <mxCell id="7R_XqbU-Kz40ECOSwQvE-46" value="" style="endArrow=none;html=1;rounded=0;" parent="1" target="7R_XqbU-Kz40ECOSwQvE-47" edge="1">
          <mxGeometry width="50" height="50" relative="1" as="geometry">
            <mxPoint x="970" y="690" as="sourcePoint" />
            <mxPoint x="970" y="750" as="targetPoint" />
          </mxGeometry>
        </mxCell>
        <mxCell id="7R_XqbU-Kz40ECOSwQvE-47" value="" style="pointerEvents=1;verticalLabelPosition=bottom;shadow=0;dashed=0;align=center;html=1;verticalAlign=top;shape=mxgraph.electrical.signal_sources.signal_ground;" parent="1" vertex="1">
          <mxGeometry x="955" y="740" width="30" height="20" as="geometry" />
        </mxCell>
        <mxCell id="7R_XqbU-Kz40ECOSwQvE-48" value="" style="endArrow=none;html=1;rounded=0;entryX=1;entryY=0.5;entryDx=0;entryDy=0;entryPerimeter=0;" parent="1" target="7R_XqbU-Kz40ECOSwQvE-37" edge="1">
          <mxGeometry width="50" height="50" relative="1" as="geometry">
            <mxPoint x="970" y="720" as="sourcePoint" />
            <mxPoint x="1040" y="720" as="targetPoint" />
            <Array as="points">
              <mxPoint x="1035" y="720" />
            </Array>
          </mxGeometry>
        </mxCell>
        <mxCell id="7R_XqbU-Kz40ECOSwQvE-49" value="" style="endArrow=none;html=1;rounded=0;exitX=1;exitY=0.5;exitDx=0;exitDy=0;" parent="1" source="7R_XqbU-Kz40ECOSwQvE-45" edge="1">
          <mxGeometry width="50" height="50" relative="1" as="geometry">
            <mxPoint x="995" y="660" as="sourcePoint" />
            <mxPoint x="1040" y="660" as="targetPoint" />
          </mxGeometry>
        </mxCell>
        <mxCell id="7R_XqbU-Kz40ECOSwQvE-50" value="&lt;font style=&quot;font-size: 6px;&quot;&gt;1uF&lt;/font&gt;" style="text;html=1;strokeColor=none;fillColor=none;align=center;verticalAlign=middle;whiteSpace=wrap;rounded=0;" parent="1" vertex="1">
          <mxGeometry x="1020" y="660" width="60" height="30" as="geometry" />
        </mxCell>
        <mxCell id="7R_XqbU-Kz40ECOSwQvE-51" value="" style="endArrow=none;html=1;rounded=0;" parent="1" edge="1">
          <mxGeometry width="50" height="50" relative="1" as="geometry">
            <mxPoint x="890" y="660" as="sourcePoint" />
            <mxPoint x="940" y="660" as="targetPoint" />
          </mxGeometry>
        </mxCell>
        <mxCell id="7R_XqbU-Kz40ECOSwQvE-52" value="Vout" style="text;html=1;strokeColor=none;fillColor=none;align=center;verticalAlign=middle;whiteSpace=wrap;rounded=0;" parent="1" vertex="1">
          <mxGeometry x="882.5" y="640" width="60" height="30" as="geometry" />
        </mxCell>
        <mxCell id="7R_XqbU-Kz40ECOSwQvE-53" value="Vin" style="text;html=1;strokeColor=none;fillColor=none;align=center;verticalAlign=middle;whiteSpace=wrap;rounded=0;" parent="1" vertex="1">
          <mxGeometry x="1005" y="640" width="60" height="30" as="geometry" />
        </mxCell>
        <mxCell id="7R_XqbU-Kz40ECOSwQvE-54" value="" style="pointerEvents=1;verticalLabelPosition=bottom;shadow=0;dashed=0;align=center;html=1;verticalAlign=top;shape=mxgraph.electrical.capacitors.capacitor_1;direction=south;" parent="1" vertex="1">
          <mxGeometry x="905" y="670" width="15" height="25" as="geometry" />
        </mxCell>
        <mxCell id="7R_XqbU-Kz40ECOSwQvE-55" value="" style="endArrow=none;html=1;rounded=0;exitX=1;exitY=0.5;exitDx=0;exitDy=0;exitPerimeter=0;" parent="1" source="7R_XqbU-Kz40ECOSwQvE-54" edge="1">
          <mxGeometry width="50" height="50" relative="1" as="geometry">
            <mxPoint x="900" y="720" as="sourcePoint" />
            <mxPoint x="970" y="720" as="targetPoint" />
            <Array as="points">
              <mxPoint x="913" y="720" />
            </Array>
          </mxGeometry>
        </mxCell>
        <mxCell id="7R_XqbU-Kz40ECOSwQvE-56" value="" style="endArrow=none;html=1;rounded=0;exitX=0;exitY=0.5;exitDx=0;exitDy=0;exitPerimeter=0;" parent="1" source="7R_XqbU-Kz40ECOSwQvE-54" target="7R_XqbU-Kz40ECOSwQvE-52" edge="1">
          <mxGeometry width="50" height="50" relative="1" as="geometry">
            <mxPoint x="940" y="710" as="sourcePoint" />
            <mxPoint x="1010" y="710" as="targetPoint" />
          </mxGeometry>
        </mxCell>
        <mxCell id="7R_XqbU-Kz40ECOSwQvE-57" value="" style="endArrow=none;html=1;rounded=0;exitX=0;exitY=0.5;exitDx=0;exitDy=0;exitPerimeter=0;" parent="1" source="7R_XqbU-Kz40ECOSwQvE-54" edge="1">
          <mxGeometry width="50" height="50" relative="1" as="geometry">
            <mxPoint x="940" y="710" as="sourcePoint" />
            <mxPoint x="913" y="660" as="targetPoint" />
          </mxGeometry>
        </mxCell>
        <mxCell id="7R_XqbU-Kz40ECOSwQvE-58" value="&lt;font style=&quot;font-size: 6px;&quot;&gt;1uF&lt;/font&gt;" style="text;html=1;strokeColor=none;fillColor=none;align=center;verticalAlign=middle;whiteSpace=wrap;rounded=0;" parent="1" vertex="1">
          <mxGeometry x="870" y="660" width="60" height="30" as="geometry" />
        </mxCell>
      </root>
    </mxGraphModel>
  </diagram>
</mxfile>
